<svg width="463" height="116" viewBox="0 0 463 116" fill="none" xmlns="http://www.w3.org/2000/svg">
<path d="M428.086 68.5146L418.312 58.7781L453.217 24.0072L462.992 33.7437L428.086 68.5146Z" fill="#461E7D"/>
<path d="M380.481 115.936L370.707 106.2L405.612 71.4291L415.386 81.1656L380.481 115.936Z" fill="#461E7D"/>
<path d="M418.312 81.1607L428.086 71.4242L462.992 106.195L453.217 115.932L418.312 81.1607Z" fill="#461E7D"/>
<path d="M370.707 33.7496L380.481 24.0131L415.386 58.784L405.612 68.5205L370.707 33.7496Z" fill="#461E7D"/>
<path d="M282.528 64.0004C278.89 43.1511 260.547 27.2987 238.577 27.2987C213.988 27.2987 194.055 47.155 194.055 71.6493C194.055 96.1437 213.988 116 238.577 116C252.966 116 265.76 109.2 273.899 98.6498L263.358 90.5923C257.647 97.9929 248.671 102.763 238.577 102.763C221.327 102.763 207.342 88.8327 207.342 71.6493C207.342 54.465 221.327 40.5353 238.577 40.5353C253.178 40.5353 265.529 50.5146 268.95 64.0004H236.023V77.237H282.528V64.0004Z" fill="#461E7D"/>
<path d="M88.4738 64.0004C84.8356 43.1511 66.4925 27.2987 44.5221 27.2987C19.9339 27.2987 0 47.155 0 71.6493C0 96.1437 19.9339 116 44.5221 116C58.9113 116 71.7061 109.2 79.8448 98.6498L69.303 90.5923C63.5928 97.9929 54.6173 102.763 44.5221 102.763C27.2722 102.763 13.2878 88.8327 13.2878 71.6493C13.2878 54.465 27.2722 40.5353 44.5221 40.5353C59.1232 40.5353 71.4741 50.5146 74.8959 64.0004H41.968V77.237H88.4738V64.0004Z" fill="#461E7D"/>
<path d="M309.112 86.1362V0.000946044H295.824V86.1362C295.824 100.105 302.361 108.519 313.698 115.936L321.285 105.083C313.529 99.814 309.112 95.6897 309.112 86.1362Z" fill="#461E7D"/>
<path d="M181.566 63.9721C181.566 43.5024 164.968 27.3121 144.643 27.3121C133.072 27.3121 122.662 31.9239 115.056 39.3962V30.91H101.769V77.2368H115.056V66.2735C117.061 55.6472 126.512 40.5487 144.632 40.5487C157.618 40.5487 168.278 50.7636 168.278 63.9721V114.654H181.566V63.9721Z" fill="#461E7D"/>
</svg>
